# xmcd
# 
# Track frame offsets:
#     150
#     18160
#     36835
#     52487
#     68133
#     84097
#     101945
#     124020
#     141430
#     159540
#     176375
#     192208
# 
# Disc length: 2815
# 
# Revision: 0
# Processed by: cddbd v1.5.2PL0 Copyright (c) Steve Scherf et al.
# Submitted via: fre:ac v1.0.27
# 
DISCID=a30afd0c
DTITLE=モップス - 雨　モップス'72
DYEAR=1972
DGENRE=Rock
TTITLE0=雨
TTITLE1=あざやかな時代
TTITLE2=月光仮面
TTITLE3=夕暮れ
TTITLE4=迷子列車
TTITLE5=御意見無用
TTITLE6=笑いながら眠りたい
TTITLE7=サンド・バッグの木
TTITLE8=ふるえ
TTITLE9=なむまいだあ（河内音頭）
TTITLE10=【ボーナストラック】森の石松
TTITLE11=【ボーナストラック】まるで女の様に
EXTD=
EXTT0=
EXTT1=
EXTT2=
EXTT3=
EXTT4=
EXTT5=
EXTT6=
EXTT7=
EXTT8=
EXTT9=
EXTT10=
EXTT11=
PLAYORDER=
